<svg xmlns="http://www.w3.org/2000/svg" viewBox="0 0 435 100"><path fill="#179cde" d="M379.62 0h10.8c10.64 1.88 21.1 6 28.93 13.66 8.35 7.6 13.13 18.2 15.66 29.04v14.68c-1.55 5.17-2.8 10.48-5.34 15.3-5.32 10.53-14.5 19.02-25.38 23.56-3.87 1.58-7.95 2.57-11.95 3.77h-14.7c-8.46-2.23-16.95-5.15-23.75-10.85-13.96-10.95-21.34-29.77-18.15-47.27 2.34-14.75 11.74-28.15 24.8-35.4 5.86-3.43 12.5-5.07 19.08-6.48m20.73 15.4c-3.58 1.1-5.7 4.9-5.37 8.54l-.02 36.12c.25 4.64-3.47 9.15-8.1 9.7-2.8.46-6.05.7-7.83 3.24-3.63 3.85-.95 10.82 4.06 11.82C396.7 86.7 410 74.7 410 61.05l.04-36.07c-.1-2.24.2-4.78-1.3-6.65-1.83-2.6-5.33-3.96-8.4-2.93z"/><path d="M296.9 22.98l7.17.07-.95 6.88-7.2.06c.2-2.35.5-4.7.97-7zm9.94-.08l7.08.24-.95 6.8-7.26.1c.17-2.4.5-4.8 1.13-7.12zm-15.1 17.75c3.38-8.5 17.28-8.96 21.57-1.03 1.4 2.94.5 6.27.27 9.36-.68 4.75-.55 10-3.5 14.03-2 2.88-5.6 4.1-9 4-50.45-.04-100.9.03-151.35-.04a76.72 76.72 0 0 1 .01-6.95c6.3-.13 12.58.17 18.87-.17.65-6.38 1.53-12.73 2.3-19.1 2.28-.25 4.6-.33 6.86.08L177.6 46l31.46.03c3.82-.01 7.66 2.06 9.38 5.54 1.4 2.55.95 5.56.83 8.34 3.43.15 6.87.16 10.3-.07.66-6.38 1.53-12.73 2.32-19.1 2.28-.24 4.58-.3 6.85.1L238.6 46l31.46.03c3.82-.01 7.65 2.07 9.38 5.54 1.4 2.56.94 5.56.82 8.34 7.23.13 14.47.18 21.7.03 2.14.03 3.23-2.03 3.53-3.88-5.3-.14-10.57-.02-15.85-.06.58-5.12.8-10.34 2.08-15.35m8.66.8c-3 1.14-2.35 4.93-3.1 7.47 3.12.13 6.25.13 9.37-.1.1-1.88.32-3.76.24-5.65-1.17-2.3-4.34-2.7-6.5-1.72M176.25 53.13l-.6 6.87c11.4-.13 22.83.27 34.22-.2 3.88-.65 3.08-7.05-.86-6.73-10.92-.13-21.85-.18-32.77.05m61 0l-.6 6.87h31.4c1.63-.1 3.67.13 4.7-1.45 1.8-2.08-.02-5.7-2.76-5.5-10.92-.13-21.85-.18-32.77.05zm-191.97-9l7.1-.17c-.65 7.42-1.84 14.77-2.6 22.17-.5 6.03-5.55 11.13-11.5 11.96 1.74-2.33 3.74-4.7 4-7.74l3.02-26.22zm-14.35.86l7 .04c-.9 5.35-.5 11.06-2.74 16.1-1.57 3.57-5.3 5.85-9.17 5.86-8.37.08-16.74.06-25.1-.02-.17-2.3-.16-4.6 0-6.9 8.38-.2 16.76.14 25.13-.13 1.87.15 3.1-1.62 3.36-3.3.68-3.86.78-7.8 1.52-11.65zM61.8 46.8c2.42-1.56 5.36-1.9 8.17-1.84l18.26.03c-.38 5.02-1.33 9.98-1.62 15h42.46c2 .2 4.4-.92 4.57-3.12.44-2.5-2.34-4.16-4.57-3.86-10.5-.06-21 .03-31.5-.01.07-2.3.26-4.62.5-6.92l30.98-.1c3.2-.1 6.54.83 8.8 3.2 2.94 2.97 3.4 7.7 2.04 11.5-1.52 3.93-5.7 6.3-9.8 6.3-14.87.18-29.74-.24-44.6.2-.3 2.5-.95 4.97-1.74 7.38-2.88-.03-5.76-.01-8.64.04 1.3-2.43 2.53-4.9 3.37-7.54-4.5-.17-9 .06-13.48-.1-3.53-.1-7.15-2.1-8.43-5.5-2-5.3.37-11.82 5.25-14.66m3.4 12.95c4.77.54 9.6.25 14.38.06l.64-7.8c-4.42.04-8.85-.18-13.26.07-3.83-.1-5.27 6.12-1.76 7.68zm44.66 10.32l7.2-.06-.98 7-7.2-.07.98-6.88zm-92.98.9l7.17.07-.95 6.9-7.18.05.96-7zm9.5.18l7.6-.13-1 6.9-7.24.1.65-6.87z" fill="#5f6368"/></svg>
