<svg xmlns="http://www.w3.org/2000/svg" viewBox="0 0 500 500"><path fill="#fff" d="M243.66 0h12.56c41.2 1.14 82.13 12.33 117.86 32.94 48.77 27.8 87.66 72.5 108.3 124.7 10.96 27.32 16.65 56.6 17.62 85.98v13.33c-1.3 41.42-12.72 82.55-33.64 118.37-30.67 53.14-81.53 94.26-140.05 112.8-22.6 7.3-46.24 11.08-69.95 11.87h-12.62c-43.86-1.18-87.4-13.9-124.7-37.02-26.1-16.07-49.2-36.97-67.78-61.33C26.46 369.3 9.8 330.78 3.3 290.55 1.4 279.5.57 268.34 0 257.18v-13.5c.8-23.98 4.66-47.9 12.1-70.72C29.02 120.3 64.13 73.8 109.96 42.9 149.2 16.14 196.22 1.27 243.66 0m86.78 75.67c-13.75 2.5-25.5 13.37-29.08 26.88-1.97 6.63-1.2 13.6-1.36 20.4V300c0 7.07-1.5 14.13-4.43 20.57-6.4 14.42-20.05 25.36-35.54 28.4-6.97 1.64-14.32.3-21.17 2.56-13.67 3.92-24.43 16.22-26.43 30.3-1.87 11.88 2.42 24.48 11.16 32.74 7 6.76 16.7 10.57 26.43 10.42 14.92-.01 29.86-2.7 43.83-7.94 25.1-9.36 47.02-27.07 61.42-49.68 12.87-19.93 19.74-43.6 19.72-67.33l-.01-188.1c-.04-12.83-7.32-25.28-18.4-31.72-7.76-4.7-17.25-6.24-26.14-4.58z"/></svg>