<svg xmlns="http://www.w3.org/2000/svg" viewBox="0 0 439 100"><path fill="#06f" d="M369.6 0H425l1.43 2.14-12.57 73.82c-17.9.86-35.88 0-53.8.42-5.1.07-8.46 6.83-5.4 10.92 1.12 1.8 3.3 2.43 5.32 2.34l60.94.01L430.85 33c1-5.22 1.5-10.56 3.1-15.65 1.16.52 3.3.33 3.46 2.03.66 2.56 1.1 5.17 1.58 7.77v.66c-3.9 22.54-6.86 45.25-10.6 67.82-.32 2-2.26 3.05-3.58 4.37h-72.03c-3.7-1.33-7.64-2.46-10.67-5.1-5.53-4.65-7.84-12.42-6.4-19.43l11-54.02C349 10.4 358.8 2.2 369.6 0z"/><path d="M296.9 22.96l7.13.12-.96 6.82-7.16.1c.2-2.36.52-4.7 1-7.03zm9.94.04l7.08.15-.94 6.76-7.24.07c.24-2.35.6-4.68 1.1-6.98zm-14.78 17.03c3.75-7.76 16.26-8.1 20.88-1.03 1.67 2.74.94 6.1.77 9.13-.68 5.04-.6 10.56-3.66 14.88-2.2 3.2-6.34 4.1-10 4-50.1-.03-100.2.02-150.3-.03a134.58 134.58 0 0 1 0-6.96c6.3-.1 12.62.15 18.92-.2l2.25-19c2.26-.22 4.53-.23 6.78.1l.05 5.1 31.34.06c3.6-.06 7.1 1.82 8.98 4.9 1.72 2.65 1.2 5.95 1.23 8.94 3.45.17 6.9.16 10.35-.06.54-6.36 1.43-12.68 2.26-19 2.25-.23 4.53-.24 6.78.1l.05 5.08 31.35.06c3.6-.06 7.1 1.83 8.98 4.9 1.73 2.64 1.2 5.94 1.23 8.93 7.2.15 14.44.28 21.65 0 2.2.17 3-2.04 3.47-3.74-5.22-.23-10.44-.1-15.66-.13.4-5.35.56-10.85 2.3-15.97m7.08 2.1c-1.52 1.95-1.4 4.56-1.64 6.88 3.1.02 6.18-.03 9.27-.22-.08-2.07.43-4.27-.3-6.25-1.76-2.14-5.24-1.9-7.33-.4M176.2 53.17l-.45 6.82c11.36-.12 22.74.32 34.1-.28 3.85-.32 3.02-7.16-.84-6.6-10.93-.18-21.87-.2-32.8.07m60.97-.05l-.42 6.87h31.34c1.56-.17 3.68.15 4.65-1.42 1.7-2.05.04-5.77-2.73-5.48-10.94-.2-21.9-.16-32.84.04zm-191.9-8.98l7-.2c-.63 7.64-1.57 15.27-2.62 22.86-.7 5.57-5.37 9.95-10.7 11.2 1.26-2.75 3.14-5.3 3.45-8.4l2.9-25.45zM30.92 45h6.9c-.73 5.6-.4 11.6-3 16.78-1.8 3.56-5.9 5.3-9.74 5.2-8.06.05-16.12 0-24.17-.05-.06-2.3-.06-4.6 0-6.88L24.07 60c1.8-.02 4.17.06 4.88-2.04 1.3-4.2 1.05-8.7 1.97-12.97zM58.1 63.9c-5.4-6.5-.3-17.6 7.9-18.64 7.36-.63 14.78-.08 22.17-.24-.34 5-1.22 9.97-1.46 15l42.4-.04c1.97.14 4.37-.92 4.6-3.1.34-2.48-2.38-4.12-4.6-3.84-10.46-.07-20.93.02-31.4-.03l.37-6.92 29.98-.1c2.8-.01 5.77.2 8.15 1.84 5.24 3.33 5.97 11.62 1.64 15.98-2 2.07-4.87 3.14-7.73 3.16-14.87.3-29.77-.4-44.63.4-.46 2.44-1.06 4.85-1.74 7.23l-8.58.03c1.23-2.42 2.34-4.9 3.22-7.5-6.67-1-14.92 2.06-20.27-3.24m7.2-4.23c4.76.72 9.6.3 14.4.1L80.2 52c-4.68.07-9.38-.3-14.03.24-3.3.57-4.1 6.26-.84 7.4zm44.6 10.36h7.13l-.97 7-7.12-.07.96-6.93zm-93 1.03l7.12-.03-.97 6.97-7.1-.02.96-6.92zm9.38.15l7.68-.18-1 6.88-7.12.1.43-6.8z" fill="#5f6368"/></svg>